<svg width="128" height="128" viewBox="0 0 128 128" fill="none" xmlns="http://www.w3.org/2000/svg">
<rect width="128" height="128" fill="#2F3133"/>
<path d="M12 104V25H13.8455H58.1384V26.975H13.8455V62.525L23.0732 52.65V55.1265L13.8455 65.1474V102.108C15.322 102.108 43.9893 102.025 58.1384 102.025V104H13.8455H12Z" fill="white"/>
<path d="M37.8375 66.475V64.5H24.9188V66.475H37.8375Z" fill="white"/>
<path d="M23.0732 102.025V26.975H24.9188V102.025H23.0732Z" fill="white"/>
<path d="M94.0238 27.0256C108.02 27.0256 114.649 40.1319 116.107 46.6068H118C117.109 39.0321 108.02 25 94.0238 25C80.1823 25 72.1721 36.2785 68.7857 46.6068C68.0315 48.9072 66.2619 56.6 66.2619 64.5C66.2619 70.425 67.4788 78.3529 68.7857 82.3932C71.625 91.1709 79.707 104 94.0238 104C108.341 104 116.218 90.9554 118 82.3932H116.107C114.649 88.8681 108.02 101.974 94.0238 101.974C81.0893 101.974 73.7099 89.8205 70.994 82.3932C69.5127 78.3419 68.1967 69.9017 68.1967 64.5C68.1967 59.0983 69.4696 51.4425 70.994 46.6068C73.2928 39.315 80.0274 27.0256 94.0238 27.0256Z" fill="white"/>
<path d="M90.164 102.025H88.2518L71.6694 62.525L67.5238 52.65H69.436L72.761 60.5705L92.0761 25.9875H93.9883L73.5816 62.525L90.164 102.025Z" fill="white"/>
</svg>
